<?xml version="1.0" encoding="utf-8"?>
<!-- Generator: Adobe Illustrator 18.0.0, SVG Export Plug-In . SVG Version: 6.00 Build 0)  -->
<!DOCTYPE svg PUBLIC "-//W3C//DTD SVG 1.1//EN" "http://www.w3.org/Graphics/SVG/1.1/DTD/svg11.dtd">
<svg version="1.1" id="Layer_1" xmlns="http://www.w3.org/2000/svg" xmlns:xlink="http://www.w3.org/1999/xlink" x="0px" y="0px"
	 viewBox="254.8 17.9 102.5 756.2" enable-background="new 254.8 17.9 102.5 756.2" xml:space="preserve">
<path fill="#1F75FE" d="M350.1,129.2v-27.4c0-4.4-3.6-7.9-7.9-7.9H342l-19.5-70.2c-1-3.4-4.1-5.8-7.7-5.8h-17.7
	c-3.6,0-6.7,2.4-7.7,5.8L270,93.9h-0.2c-4.4,0-7.9,3.5-7.9,7.9v27.4c-4,0.4-7.1,3.7-7.1,7.8v598.2c0,4.1,3.2,7.4,7.1,7.8v23.1
	c0,4.4,3.6,7.9,7.9,7.9h72.4c4.4,0,7.9-3.6,7.9-7.9v-23.1c4-0.4,7.1-3.7,7.1-7.8V137C357.2,132.9,354.1,129.6,350.1,129.2z"/>
</svg>
