<?xml version="1.0" encoding="utf-8"?>
<!-- Generator: Adobe Illustrator 18.0.0, SVG Export Plug-In . SVG Version: 6.00 Build 0)  -->
<!DOCTYPE svg PUBLIC "-//W3C//DTD SVG 1.1//EN" "http://www.w3.org/Graphics/SVG/1.1/DTD/svg11.dtd">
<svg version="1.1" id="Layer_1" xmlns="http://www.w3.org/2000/svg" xmlns:xlink="http://www.w3.org/1999/xlink" x="0px" y="0px"
	 viewBox="507.1 17.9 107.2 791.9" enable-background="new 507.1 17.9 107.2 791.9" xml:space="preserve">
<path fill="#888888" d="M606.9,134.5v-28.7c0-4.6-3.8-8.3-8.3-8.3h-0.2L578,24c-1-3.6-4.3-6.1-8.1-6.1h-18.5c-3.8,0-7,2.5-8.1,6.1
	L523,97.5h-0.2c-4.6,0-8.3,3.7-8.3,8.3v28.7c-4.2,0.4-7.4,3.9-7.4,8.2v626.5c0,4.3,3.4,7.8,7.4,8.2v24.2c0,4.6,3.8,8.3,8.3,8.3h75.8
	c4.6,0,8.3-3.8,8.3-8.3v-24.2c4.2-0.4,7.4-3.9,7.4-8.2V142.6C614.4,138.3,611.1,134.9,606.9,134.5z"/>
</svg>
