<?xml version="1.0" encoding="utf-8"?>
<!-- Generator: Adobe Illustrator 17.1.0, SVG Export Plug-In . SVG Version: 6.00 Build 0)  -->
<!DOCTYPE svg PUBLIC "-//W3C//DTD SVG 1.1//EN" "http://www.w3.org/Graphics/SVG/1.1/DTD/svg11.dtd">
<svg version="1.1" id="Layer_1" xmlns="http://www.w3.org/2000/svg" xmlns:xlink="http://www.w3.org/1999/xlink" x="0px" y="0px"
	 viewBox="0 0 400 600" enable-background="new 0 0 400 600" xml:space="preserve">
<path d="M381.859,149.114c2.116,2.041,6.437,0.27,5.591-3.299c-2.324-9.794-7.558-19.6-14.136-27.91
	c-3.143-7.03-7.362-13.569-12.863-19.686c-4.058-4.509-8.58-8.479-13.202-12.351c-1.18-3.591-3.434-6.619-5.947-9.453
	c0.047-0.108,0.103-0.213,0.136-0.328c1.981,1.118,4.461-1.248,3.175-3.251c-3.216-5.008-7.82-8.749-12.932-11.841
	c-21.83-23.249-56.185-26.308-87.139-30.662c-19.388-2.729-41.598-2.713-60.248,3.845c-15.116,5.318-31.219,9.136-40.06,22.888
	c-0.701-0.663-1.578-1.212-2.671-1.575c-24.126-8.061-49.063,5.442-69.346,17.962c-22.056,13.613-34.54,37.197-46.565,59.182
	c-13.058,23.872-19.062,48.493-16.96,75.691c2.307,29.822,8.616,59.107,10.534,89.028c0.116,1.846,1.111,3.053,2.37,3.646
	c-8.901,12.325-9.647,29.631-3.92,44.004c3.828,9.602,10.346,17.805,16.837,25.727c8.329,10.166,15.572,21.103,23.827,31.317
	c6.484,8.022,15.771,14.069,26.289,13.973c1.544-0.013,2.879-0.296,4.045-0.766c1.473,13.638,4.71,27.079,8.371,40.275
	c3.342,12.031,8.818,19.829,18.967,27.056c12.882,9.174,24.7,19.29,38.154,27.756c2.928,1.84,5.848,3.702,8.771,5.562
	c0.099,0.066,0.199,0.11,0.298,0.182c7.088,5.097,14.349,9.904,21.304,15.169c2.918,1.298,5.771,2.752,8.511,4.481
	c26.999,17.028,52.477,36.092,85.539,22.319c12.381-5.158,24.192-14.017,31.882-25.034c5.047-4.235,8.446-9.62,11.995-14.959
	c1.44-1.864,2.804-3.806,4.1-5.776c0.505-0.652,0.998-1.31,1.534-1.943c2.32-2.734,5-6.603,5.657-10.296
	c5.964-11.283,11.689-22.669,16.236-34.774c8.852-23.556,15.575-48.505,19.891-73.28c4.327-24.811,4.263-50.392,3.838-75.479
	c-0.208-12.376-4.763-24.838-8.904-36.319c-2.599-7.211-3.27-14.225-3.793-21.326c0.041-0.748,0.086-1.491,0.147-2.232
	c0.121-1.489,0.215-2.976,0.277-4.462c0.122-0.136,0.252-0.262,0.359-0.419c1.085-1.591,1.839-3.4,2.373-5.335
	c0.713-0.266,1.396-0.718,1.994-1.451c8.804-10.79,13.509-23.945,15.713-37.933c0.364-0.216,0.661-0.552,0.801-1.028
	c1.679-5.73,1.674-12.174,0.801-18.722c0.064-4.334-0.042-8.677-0.257-12.99c0.477,2.611,0.693,5.15,0.373,7.382
	c-0.472,3.309,4.222,4.837,5.154,1.42C391.588,172.714,387.142,160.124,381.859,149.114z M362.359,309.195
	c2.835,24.432-1.801,49.907-3.884,74.249c-2.091,24.434-11.268,48.819-18.797,71.967c-5.197,15.973-12.973,30.559-20.852,45.157
	c-0.464-2.94-1.246-5.917-2.422-8.92c-0.964-2.462-4.321-2.061-4.561,0.618c-2.451,27.444-22.67,48.756-49.706,54.285
	c-27.04,5.533-45.087-20.031-68.273-27.987c-2.489-1.61-5.088-3.306-7.749-4.846c-6.205-4.091-12.321-8.324-18.556-12.395
	c-11.821-7.715-23.57-15.147-34.581-24.031c-9.628-7.765-18.406-13.368-22.965-25.338c-5.249-13.768-7.979-28.278-12.787-42.171
	c-0.461-1.329-1.44-2.226-2.583-2.721c0.392-2.208,0.335-4.583-0.085-6.82c-0.613-3.279-5.226-2.774-6.121,0
	c-3.879,12.033-18.829-2.904-21.879-6.417c-4.58-5.276-8.351-11.266-12.445-16.915c-8.169-11.271-17.97-21.211-24.488-33.62
	c-6.533-12.434-6.05-28.104,4.509-38.021c15.122-14.2,22.64,7.345,31.603,16.828c1.647,7.515,6.718,16.68,14.395,18.793
	c7.964,2.19,11.81-5.708,12.091-12.164c0.218-5.008-1.87-10.359-3.458-14.968c-2.462-7.148-1.072-14.047,0.006-21.321
	c2.186-14.752,6.03-28.277,11.254-42.225c4.464-11.921,13.377-20.891,18.815-32.22c6.116-12.743-0.227-23.169-2.646-35.786
	c-2.862-14.932,2.701-30.904,12.017-42.392c4.823-5.942,9.602-11.802,16.086-15.998c5.677-3.672,12.633-5.516,19.3-7.05
	c8.113,2.475,16.601,4.26,24.581,7.083c12.368,4.376,24.589,7.293,37.69,8.246c25.421,1.851,50.565-4.498,75.843-5.661
	c9.204-0.425,20.901,1.263,26.913,9.072c8.017,10.41,10.912,25.526,13.719,38.045c3.158,14.092,6.182,28.285,8.008,42.617
	c0.79,6.2,1.376,12.412,1.768,18.647c0.321,5.108-0.147,9.536,1.498,13.926c-2.244,7.829-2.309,17.595,0.331,24.195
	c0.241,0.602,0.608,1.055,1.036,1.362C357.364,285.997,360.971,297.233,362.359,309.195z"/>
<path d="M298.855,421.466c-3.818-9.638-16.561-12.108-25.736-14.109c-11.724-2.558-20.993,6.914-27.255,15.498
	c-0.143,0.196-0.257,0.393-0.346,0.591c-2.224,2.108-4.934,3.799-7.813,4.646c0.096,0.367,0.359,0.672,0.82,0.746
	c1.923,0.304,3.9,0.661,5.768-0.107c0.064,0.038,0.108,0.088,0.182,0.119c1.143,0.491,2.265,1.031,3.378,1.591
	c0.293,0.24,0.616,0.459,1.012,0.627c0.23,0.099,0.475,0.163,0.708,0.256c0.138,0.072,0.276,0.144,0.411,0.215v0.002
	c0.002,0,0.005,0.003,0.006,0.003c9.103,4.829,17.686,10.71,28.714,8.99C285.836,439.42,303.027,432.011,298.855,421.466z
	 M254.704,423.074c3.842-4.175,7.791-8.166,13.794-9.077c0.79-0.03,1.588-0.02,2.387,0.014c-0.027,0.745-0.013,1.519-0.006,2.315
	c0.017,2.182-0.218,4.348-0.342,6.52c-2.965,0.188-5.929,0.426-8.865,0.807C259.321,423.627,256.973,423.528,254.704,423.074z
	 M287.404,422.339c-2.837,0.027-5.711,0.074-8.595,0.146c0.24-1.99,0.569-4.258,0.589-6.418c3.94,1.559,7.567,3.806,8.373,6.301
	C287.648,422.359,287.532,422.337,287.404,422.339z"/>
<path d="M305.45,428.466c-2.464-2.06-5.796-0.679-6.08,2.519c-1.108,12.58-11.305,21.393-23.763,21.736
	c-11.135,0.306-22.288-7.243-31.706-12.378c-2.295-1.251-4.094,1.539-2.627,3.406c10.501,13.348,27.462,21.634,44.596,18.062
	C297.862,459.31,319.317,440.059,305.45,428.466z"/>
<path d="M276.357,389.086c-9.736-0.718-16.683,2.586-22.965,7.616c-3.585,2.177-6.815,5.157-9.189,7.931
	c-0.44,0.516-0.607,1.044-0.591,1.6c-0.581,0.404-0.771,1.03-0.624,1.666c0.008,0.281,0.105,0.552,0.32,0.781
	c0.038,0.042,0.078,0.085,0.119,0.127c0.498,0.533,1.487,0.563,1.981,0c0.701-0.793,0.362-0.092,1.495-0.676
	c2.146-1.105,3.933-1.914,5.757-3.371c4.746-2.39,9.504-4.636,14.893-5.962c5.769-1.42,13.191-0.455,18.373,2.216
	c3.878,2,6.497,5.74,10.451,7.697c1.567,0.774,3.942-0.132,3.785-2.174C299.245,394.625,286.69,389.849,276.357,389.086z"/>
<path d="M228.149,428.146c-5.063,0.893-8.117,6.984-9.274,11.501c-0.622,2.433,2.737,3.859,4.033,1.699
	c1.881-3.13,4.65-5.627,7.509-7.823C233.065,431.494,231.562,427.547,228.149,428.146z"/>
<path d="M250.74,359.448l-0.011-0.058c-0.676-3.436-5.434-4.422-7.722-2.041c-0.741,0.774-3.641,0.705-4.707,0.989
	c-0.188,0.05-0.376,0.072-0.563,0.099c-1.933-0.53-3.671-1.524-5.136-2.865c-1.116-0.495-2.099-1.19-2.632-1.915
	c-0.984-1.346-1.359-2.862-1.453-4.431c-0.837-2.561-0.781-5.638-0.125-8.342c-0.163-0.105-0.346-0.171-0.539-0.213
	c0.005-0.124,0.017-0.248,0.017-0.371c0.005-1.837-2.738-1.813-2.834,0c-0.013,0.268-0.06,0.525-0.102,0.784
	c-0.326,0.114-0.597,0.387-0.702,0.86c-0.843,3.694-2.041,6.356-1.502,10.24c0.072,0.514,0.197,1.028,0.359,1.541
	c0.193,0.823,0.437,1.639,0.79,2.436c-3.132,2.688-9.522,11.268-10.025,12.33c-2.462,5.201-5.832,10.208-8.809,15.136
	c-2.481,4.114-2.746,10.961-4.492,15.6c-0.696,1.851,2.127,3.533,3.378,1.967c4.182-5.229,4.76-11.658,8.453-17.083
	c3.365-4.937,7.158-9.951,10.211-15.067c1.464-2.454,4.146-4.586,6.443-6.843c0.094,0.085,0.188,0.18,0.279,0.263
	c4.851,4.368,13.539,4.694,19.288,2.143l-0.099-0.075C250.119,363.748,251.255,362.067,250.74,359.448z"/>
<path d="M345.156,262.522c-1.829-10.398-15.843-10.558-24.054-11.04c-9.178-0.541-18.88,1.44-23.68,9.895
	c-0.646,1.135-0.345,2.257,0.373,2.987c-0.182,2.743,3.049,5.21,5.735,3.567c2.287-1.4,5.089-3,7.998-3.859
	c-0.152,1.397-0.078,2.856,0.324,4.378c1.232,4.669,7.144,7.15,11.55,5.992c5.016-1.32,7.547-4.622,8.204-9.672
	c0.182-1.398-0.27-2.875-1.041-4.282c5.052,0.77,6.367,3.127,10.156,5.445C343.167,267.43,345.59,264.985,345.156,262.522z"/>
<path d="M319.748,283.161c-2.813-1.9-5.666-2.834-8.832-3.987c-3.197-1.166-6.031-3.229-8.968-4.907
	c-2.955-1.69-5.555,2.787-2.655,4.547c6.331,3.845,11.954,7.257,19.498,7.882C320.815,286.867,321.179,284.128,319.748,283.161z"/>
<path d="M238.527,227.848c-13.446-7.011-31.01-7.39-45.707-9.86c-9.52-1.599-17.974-2.719-27.576-0.918
	c-7.901,1.484-10.606,6.078-15.783,11.765c-1.617,1.773-0.113,4.5,1.987,4.848c5.025,0.828,9.152-3.307,13.835-2.56
	c8.445,1.345,16.865,2.136,25.307,3.685c14.019,2.569,27.651,4.679,41.322,8.657C242.315,246.493,248.367,232.976,238.527,227.848z"
	/>
<path d="M331.489,215.696c-6.638,1.696-12.501,3.978-18.721,6.859c-6.064,2.806-10.655,7.166-16.404,10.136
	c-2.119,1.094-1.834,3.766,0.154,4.78c6.453,3.29,13.652-1.012,19.942-2.845c9.719-2.829,19.964-7.929,30.18-6.685
	c3.407,0.415,5.907-2.65,5.545-5.863C350.879,210.506,339.314,213.696,331.489,215.696z"/>
<path d="M72.277,358.205c-2.701-3.81-0.365-10.531-0.666-15.261c-0.335-5.265-3.459-8.689-7.486-11.683
	c-1.68-1.248-3.868,1.15-2.806,2.809c2.661,4.152,2.563,7.86,2.268,12.497c-0.194,3.052-2.585,5.616-1.97,8.743
	c0.676,3.447,2.349,6.108,4.301,9.006c1.796,2.669,4.373,4.699,5.65,7.747c0.346,0.831,1.006-0.226-1.168,1.976
	c-2.454,2.486-0.44,5.918,2.6,6.28c4.556,0.542,7.298-1.491,8.063-5.948C82.147,368.063,75.49,362.735,72.277,358.205z"/>
<path d="M84.776,340.652c-0.08-3.865,5.047-5.31,4.53-9.511c-0.253-2.061-2.193-3.547-4.212-2.416
	c-3.36,1.879-6.955,6.938-6.764,10.907c0.235,4.889,1.868,8.8,5.403,12.138c0.663,0.625,1.902,0.015,1.593-0.929
	C84.154,347.26,84.852,344.263,84.776,340.652z"/>
<path d="M90.403,321.956c-1.025-6.601-9.167-13.192-15.801-10.472c-3.058,1.253-5.888,4.186-6.814,7.411
	c-1.218,4.236-0.22,7.423,1.485,11.232c0.319,0.715,1.599,0.735,1.913,0c0.925-2.181,1.605-4.104,2.254-6.412
	c0.254-0.904,2.053-5.27,3.592-4.962c3.834,0.76,6.124,5.341,9.739,6.837C89.1,326.553,90.701,323.875,90.403,321.956z"/>
<path d="M314.39,359.768c-0.306-0.531-0.676-0.909-1.075-1.18c-0.058,0.179-0.103,0.357-0.166,0.538
	c-0.48,1.386-1.202,2.542-2.069,3.511c-0.469,0.851-0.981,1.69-1.52,2.52c3.211,7.174,6.476,14.011,8.26,21.786
	c0.575,2.505,4.816,2.699,5.243,0C324.633,376.978,319.196,368.081,314.39,359.768z"/>
<path d="M232.703,264.58c-0.031-0.141-0.074-0.277-0.11-0.414c0.009-0.064,0.036-0.113,0.044-0.179
	c0.014-0.11,0.028-0.221,0.042-0.331c0.182-1.448-0.958-3.146-2.183-3.807c-5.779-3.117-12.459-6.428-19.257-5.073
	c-6.997,1.392-13.965,2.669-20.989,3.995c-10.102,1.904-28.645,6.252-30.897,18.341c-0.295,1.575,1.409,2.599,2.639,1.536
	c7.467-6.453,14.174-9.207,23.117-11.16c-1.049,0.679-1.691,1.727-1.282,3.644c0.679,3.158,3.976,6.624,7.153,7.523
	c1.047,0.296,2.13,0.339,3.205,0.207c3.164,1.32,6.6-1.097,8.619-4.589c1.1-1.146,1.787-2.484,1.798-3.857
	c0.842-1.088,2.034-1.876,4.05-1.976c2.169-0.111,9.379-0.497,9.575,2.813c0.093,1.563,0.904,3.022,2.069,3.989
	c-1.765,0.998-3.42,2.293-4.94,3.47c-3.994,3.092-9.29,6.515-14.351,7.232c-2.163,0.306-1.574,3.724,0.505,3.724
	c8.782,0.005,19.537-6.484,24.463-13.667c0.132-0.193,0.194-0.382,0.226-0.567C230.189,272.77,233.859,269.977,232.703,264.58z"/>
<path d="M266.091,355.289c-1.381-4.312-7.136-5.951-10.987-7.469c-5.862-2.309-11.531-0.47-15.873,3.771
	c-1.434,1.401-0.339,3.807,1.592,3.846c3.49,0.069,7.348-0.232,10.523,1.295c1.081,0.52,2.088,1.161,3.138,1.732
	c0.47,0.237,0.942,0.473,1.414,0.707c0.976,0.486,1.718,1.644,0.81,0.072C259.591,364.226,267.89,360.909,266.091,355.289z"/>
<path d="M305.231,353.496c-0.549-1.931-3.755-2.751-4.671-0.61c-0.686,1.605-1.746,2.842-2.831,4.182
	c-0.55,0.675-0.773,0.859-1.458,1.597c-1.096,1.179-1.591,2.349-1.704,3.953c-0.274,3.907,5.205,4.97,7.062,1.912
	C303.449,361.531,306.339,357.412,305.231,353.496z"/>
<path d="M391.149,249.563c-0.329-1.4-0.806-2.437-1.385-3.254c-0.078-0.887-0.516-1.754-1.202-2.592
	c-0.807-0.987-1.878-1.69-3.097-1.954c-1.384-0.622-2.776-1.055-4.304-0.967c-3.906-2.864-9.304-2.755-13.987-3.249
	c-12.481-1.315-25.863-1.161-38.286,0.652c-12.246,1.788-23.482,2.312-34.894,7.094c-4.697,1.969-10.628,2.298-13.992,6.03
	c-6.979,2.086-14.014,1.224-21.126,0.84c0.103-11.222-32.698-9.116-38.858-8.931c-15.305,0.464-30.227,0.995-45.463,2.679
	c-8.08,0.893-19.664,0.044-26.564,5.404c-0.527-0.105-1.105-0.13-1.743-0.03c-9.265,1.428-18.627,2.589-27.767,4.893
	c-6.437,1.625-12.801,2.08-19.084,4.49c-2.23,0.857-4.762,1.967-7.31,2.939c-0.124-0.158-0.248-0.318-0.397-0.467
	c-1.868-1.882-4.395-0.176-4.431,2.055c-0.608,0.154-1.21,0.29-1.795,0.39c-1.603,0.274-1.169,2.339,0,2.823
	c0.303,0.124,0.616,0.208,0.923,0.309c-0.063,0.16-0.116,0.298-0.147,0.392c-0.807,2.389-1.244,4.911-1.729,7.376
	c-0.465,2.368-1.539,5.049-1.516,7.548c-1.544,0.638-3.088,1.246-4.63,1.78c-1.87,0.651-2.069,3.426,0,3.987
	c7.769,2.11,19.641-3.147,26.998-5.66c6.589-2.254,14.768-1.188,21.62-1.177c6.469,0.008,12.826,1.588,15.554,8.039
	c0.204,0.483,0.461,0.862,0.748,1.179c0.42,1.378,0.879,2.748,1.381,4.092c0.045,0.216,0.099,0.426,0.138,0.646
	c0.102,0.552,0.326,0.961,0.618,1.263c0.23,0.536,0.476,1.064,0.732,1.585c0.635,2.34,1.326,4.633,2.067,6.854
	c0.889,2.668,3.768,3.049,5.627,1.973c6.633,3.857,15.902,3.412,23.043,4.155c21.941,2.286,47.583,1.662,68.439-6.758
	c0.591,0.042,1.188-0.097,1.729-0.509c0.18-0.138,0.362-0.277,0.542-0.417c0.199-0.15,0.37-0.324,0.527-0.511
	c0.699-0.235,1.346-0.729,1.824-1.585c5.58-9.998,8.481-20.819,8.398-31.852c2.381-1.375,3.915-3.849,6.81-4.693
	c4.121-1.201,7.909,0.082,10.688,2.842c0.636,0.373,1.19,0.793,1.745,1.212c0.768,1.125,1.506,2.274,2.122,3.534
	c0.165,0.335,0.357,0.668,0.545,1c-0.133,0.251-0.232,0.53-0.234,0.867c-0.105,15.224,2.854,27.118,10.627,40.117
	c7.001,11.711,18.015,18.257,19.678,32.728c0.13,1.127,0.594,2.003,1.229,2.643c-0.02,1.404-0.061,2.802-0.094,4.13
	c-0.102,4.127-1.727,7.591-2.766,11.479c-0.379,1.417,1.088,2.307,2.285,1.757c3.52-1.616,4.737-6.47,5.984-9.821
	c0.679-1.821,1.044-3.669,1.212-5.561c0.133-0.464,0.257-0.918,0.364-1.334c0.254-0.984,0.451-1.959,0.544-2.918
	c5.824-8.003-3.213-19.788-8.619-26.164c-5.458-6.437-11.605-11.845-16.346-18.94c-0.572-0.859-1.089-1.755-1.594-2.657
	c1.882,1.088,3.528,2.251,5.744,2.614c7.613,4.117,19.83,4.431,26.43,4.889c17.554,1.212,35.518-1.348,51.638-8.548
	c1.447-0.647,2.047-1.998,2.02-3.395c2.983-3.335,4.572-9.602,5.143-14.181c1.909-3.845,0.765-9.921,5.135-11.588
	c1.141-0.434,2.437-1.293,2.635-2.636C392.086,262.975,392.434,255.04,391.149,249.563z M251.549,273.188
	c-0.939,9.512-3.447,17.79-7.663,26.151c-16.686,5.989-34.005,8.238-51.706,8.672c-8.309,0.205-16.633-0.94-24.907-1.552
	c-6.204-0.459-10.268-2.625-13.254-5.934c-1.829-6.169-3.213-12.514-3.793-18.913c-0.647-7.11,0.539-14.39,0.092-21.556
	c-0.047-0.751-0.353-1.364-0.774-1.843c0.74-0.58,1.193-1.314,1.407-2.083c19.125-3.889,39.435-4.45,58.785-5.13
	c8.395-0.293,17.123-0.654,25.474,0.368c3.125,0.384,6.252,0.697,9.367,1.171c1.251,0.188,2.495,0.42,3.732,0.691
	c3.086,0.624,2.469,1.986,2.48-0.608c-0.008,1.654,0.734,2.771,1.771,3.373C251.796,261.671,252.114,267.466,251.549,273.188z
	 M377.582,272.445c0.044,4.943-0.041,14.053-2.11,20.282c-0.379-0.108-0.781-0.165-1.215-0.127
	c-0.165,0.011-0.331,0.027-0.495,0.039c-0.939,0.077-1.704,0.381-2.307,0.818c-11.348,4.884-24.061,7.668-36.346,7.958
	c-5.824,0.139-11.533,0.282-17.343-0.271c-4.196-0.397-11.614-0.453-17.261-2.183c-0.303-0.263-0.674-0.464-1.139-0.55
	c-0.431-0.077-0.848-0.208-1.263-0.351c-1.141-0.523-2.163-1.139-2.983-1.892c-2.144-6.472-5.472-12.385-7.439-18.976
	c-1.276-4.279-1.533-8.609-1.898-12.931c0.434-3.353,0.194-7.033,0.425-10.008c13.993-4.827,29.23-6.213,43.75-8.141
	c9.953-1.324,20.412-1.266,30.426-0.721c4.961,0.27,10.575,0.379,15.25,2.249c-0.011,1.243,0.734,2.494,2.244,3.075
	C379.331,251.277,377.572,271.403,377.582,272.445z"/>
</svg>
