<?xml version="1.0" encoding="utf-8"?>
<!-- Generator: Adobe Illustrator 17.1.0, SVG Export Plug-In . SVG Version: 6.00 Build 0)  -->
<!DOCTYPE svg PUBLIC "-//W3C//DTD SVG 1.1//EN" "http://www.w3.org/Graphics/SVG/1.1/DTD/svg11.dtd">
<svg version="1.1" id="Layer_1" xmlns:sketch="http://www.bohemiancoding.com/sketch/ns"
	 xmlns="http://www.w3.org/2000/svg" xmlns:xlink="http://www.w3.org/1999/xlink" x="0px" y="0px" viewBox="0 0 36 44"
	 enable-background="new 0 0 36 44" xml:space="preserve">
<title>trash_delete_</title>
<description>Created with Sketch (http://www.bohemiancoding.com/sketch)</description>
<g id="Editor" sketch:type="MSPage">
	<path id="trash_delete_" sketch:type="MSShapeGroup" d="M1,5c0,0-1,0-1,1c0,1,1,1,1,1h33.909c0,0,1,0,1-1s-1-1-1-1H1z M4.948,44
		l-3-35h1.998l3.002,33h22l3-33h2l-3,35H4.948z M14.948,0C12.948,0,13,2,13,2v1h1.948V2H21v1h1.948V2c0,0,0-2-2-2H14.948z M9.485,9
		l1.463,30h2L11.485,9H9.485z M24.501,9l-1.554,30h2l1.554-30H24.501z M16.948,9v30h2V9H16.948z"/>
</g>
</svg>
