<?xml version="1.0" encoding="utf-8"?>
<!-- Generator: Adobe Illustrator 17.1.0, SVG Export Plug-In . SVG Version: 6.00 Build 0)  -->
<!DOCTYPE svg PUBLIC "-//W3C//DTD SVG 1.1//EN" "http://www.w3.org/Graphics/SVG/1.1/DTD/svg11.dtd">
<svg version="1.1" id="Layer_1" xmlns="http://www.w3.org/2000/svg" xmlns:xlink="http://www.w3.org/1999/xlink" x="0px" y="0px"
	 viewBox="0 0 50 50" enable-background="new 0 0 50 50" xml:space="preserve">
<path fill="#FFFFFF" d="M33.09,19.902c-0.626,0.278-1.301,0.466-2.007,0.55c0.722-0.433,1.276-1.117,1.537-1.933
	c-0.676,0.4-1.423,0.691-2.22,0.847c-0.636-0.679-1.545-1.104-2.551-1.104c-1.929,0-3.494,1.565-3.494,3.495
	c0,0.274,0.03,0.541,0.09,0.796c-2.905-0.146-5.479-1.536-7.205-3.652c-0.301,0.518-0.473,1.118-0.473,1.759
	c0,1.211,0.617,2.282,1.555,2.909c-0.573-0.017-1.112-0.176-1.584-0.437v0.043c0,1.694,1.205,3.107,2.805,3.427
	c-0.293,0.082-0.602,0.123-0.921,0.123c-0.225,0-0.445-0.021-0.657-0.062c0.444,1.388,1.735,2.399,3.265,2.426
	c-1.196,0.938-2.704,1.497-4.341,1.497c-0.282,0-0.561-0.016-0.834-0.048c1.547,0.991,3.384,1.57,5.358,1.57
	c6.43,0,9.945-5.325,9.945-9.945c0-0.152-0.003-0.303-0.009-0.452C32.029,21.218,32.623,20.603,33.09,19.902"/>
<path fill="#547BBC" d="M25,42.008c9.393,0,17.008-7.614,17.008-17.008c0-9.393-7.615-17.008-17.008-17.008
	C15.607,7.992,7.992,15.607,7.992,25C7.992,34.394,15.607,42.008,25,42.008"/>
<path fill="#FFFFFF" d="M20.897,22.12h1.758v-1.709c0-0.753,0.019-1.916,0.566-2.635c0.577-0.762,1.368-1.28,2.729-1.28
	c2.218,0,3.152,0.316,3.152,0.316l-0.439,2.605c0,0-0.733-0.212-1.417-0.212c-0.684,0-1.296,0.245-1.296,0.929v1.986h2.804
	l-0.196,2.545h-2.608v8.839h-3.296v-8.839h-1.758V22.12z"/>
</svg>
